<svg width="185" height="27" viewBox="0 0 185 27" fill="none" xmlns="http://www.w3.org/2000/svg">
<g clip-path="url(#clip0_1_135)">
<path d="M24.4046 6.2283C23.5639 6.60017 22.6723 6.84439 21.7595 6.95289C22.7217 6.37744 23.4418 5.4718 23.7857 4.40473C22.8827 4.94211 21.8927 5.31872 20.8609 5.52244C20.1678 4.78088 19.2492 4.28907 18.2477 4.12347C17.2463 3.95788 16.2182 4.12777 15.3233 4.60675C14.4284 5.08573 13.7168 5.84694 13.2992 6.77206C12.8815 7.69718 12.7812 8.73437 13.0138 9.72238C11.1827 9.6306 9.39128 9.15474 7.75597 8.3257C6.12065 7.49666 4.67796 6.33297 3.52157 4.91018C3.11225 5.61324 2.89715 6.41245 2.8983 7.22598C2.8983 8.82271 3.71098 10.2333 4.94651 11.0592C4.21533 11.0362 3.50025 10.8387 2.86086 10.4833V10.5406C2.86108 11.604 3.22906 12.6346 3.90242 13.4577C4.57577 14.2808 5.51306 14.8456 6.55535 15.0565C5.8766 15.2405 5.16489 15.2676 4.4741 15.1358C4.76798 16.0512 5.34075 16.8517 6.11223 17.4253C6.8837 17.999 7.81526 18.3169 8.77645 18.3348C7.82115 19.0851 6.72733 19.6397 5.55754 19.9669C4.38775 20.2942 3.16493 20.3877 1.95898 20.2421C4.06413 21.5959 6.51472 22.3146 9.01761 22.3123C17.4891 22.3123 22.1218 15.2944 22.1218 9.20813C22.1218 9.00991 22.1163 8.80949 22.1075 8.61348C23.0092 7.96176 23.7874 7.15443 24.4057 6.22941L24.4046 6.2283Z" fill="white"/>
</g>
<g clip-path="url(#clip1_1_135)">
<path d="M66.0715 9.91072C65.1953 9.91072 64.355 10.2588 63.7355 10.8783C63.116 11.4979 62.7679 12.3381 62.7679 13.2143C62.7679 14.0905 63.116 14.9307 63.7355 15.5503C64.355 16.1698 65.1953 16.5179 66.0715 16.5179C66.9476 16.5179 67.7879 16.1698 68.4075 15.5503C69.027 14.9307 69.375 14.0905 69.375 13.2143C69.375 12.3381 69.027 11.4979 68.4075 10.8783C67.7879 10.2588 66.9476 9.91072 66.0715 9.91072ZM66.0715 7.70834C67.5317 7.70834 68.9322 8.28843 69.9648 9.321C70.9973 10.3536 71.5774 11.754 71.5774 13.2143C71.5774 14.6746 70.9973 16.075 69.9648 17.1076C68.9322 18.1402 67.5317 18.7202 66.0715 18.7202C64.6112 18.7202 63.2107 18.1402 62.1782 17.1076C61.1456 16.075 60.5655 14.6746 60.5655 13.2143C60.5655 11.754 61.1456 10.3536 62.1782 9.321C63.2107 8.28843 64.6112 7.70834 66.0715 7.70834ZM73.2292 7.43305C73.2292 7.79811 73.0842 8.14823 72.826 8.40637C72.5679 8.66451 72.2178 8.80953 71.8527 8.80953C71.4877 8.80953 71.1375 8.66451 70.8794 8.40637C70.6213 8.14823 70.4762 7.79811 70.4762 7.43305C70.4762 7.06798 70.6213 6.71786 70.8794 6.45972C71.1375 6.20158 71.4877 6.05656 71.8527 6.05656C72.2178 6.05656 72.5679 6.20158 72.826 6.45972C73.0842 6.71786 73.2292 7.06798 73.2292 7.43305ZM66.0715 4.40477C63.3471 4.40477 62.9022 4.41248 61.6348 4.46864C60.7714 4.50939 60.1922 4.62501 59.6548 4.83424C59.1769 5.01924 58.8322 5.24058 58.4656 5.60837C58.1209 5.94137 57.8559 6.34792 57.6903 6.79766C57.4811 7.33724 57.3655 7.91537 57.3258 8.7776C57.2686 9.99331 57.262 10.4184 57.262 13.2143C57.262 15.9386 57.2697 16.3835 57.3258 17.651C57.3666 18.5132 57.4822 19.0936 57.6903 19.6298C57.8775 20.1088 58.0978 20.4535 58.4633 20.8191C58.8345 21.1891 59.1791 21.4105 59.6526 21.5933C60.1966 21.8036 60.7758 21.9203 61.6348 21.9599C62.8505 22.0172 63.2756 22.0238 66.0715 22.0238C68.7958 22.0238 69.2407 22.0161 70.5082 21.9599C71.3693 21.9192 71.9496 21.8036 72.487 21.5955C72.9638 21.4094 73.3107 21.188 73.6763 20.8224C74.0474 20.4513 74.2687 20.1066 74.4515 19.6331C74.6608 19.0902 74.7775 18.5099 74.8171 17.651C74.8744 16.4353 74.881 16.0102 74.881 13.2143C74.881 10.49 74.8733 10.0451 74.8171 8.7776C74.7764 7.91647 74.6608 7.33504 74.4515 6.79766C74.2856 6.34838 74.021 5.94199 73.6774 5.60837C73.3445 5.26353 72.938 4.9985 72.4881 4.83314C71.9485 4.62391 71.3693 4.50829 70.5082 4.46864C69.2925 4.41138 68.8674 4.40477 66.0715 4.40477ZM66.0715 2.20239C69.0634 2.20239 69.4367 2.2134 70.6106 2.26846C71.7833 2.32352 72.5817 2.50742 73.2843 2.78052C74.0111 3.06022 74.6233 3.43903 75.2356 4.05019C75.7955 4.60067 76.2288 5.26655 76.5053 6.0015C76.7772 6.70296 76.9622 7.50242 77.0173 8.67519C77.0691 9.84906 77.0834 10.2224 77.0834 13.2143C77.0834 16.2062 77.0724 16.5795 77.0173 17.7534C76.9622 18.9262 76.7772 19.7245 76.5053 20.4271C76.2296 21.1624 75.7962 21.8285 75.2356 22.3784C74.6849 22.9382 74.0191 23.3714 73.2843 23.6481C72.5828 23.9201 71.7833 24.1051 70.6106 24.1601C69.4367 24.2119 69.0634 24.2262 66.0715 24.2262C63.0795 24.2262 62.7062 24.2152 61.5324 24.1601C60.3596 24.1051 59.5612 23.9201 58.8587 23.6481C58.1234 23.3722 57.4574 22.9388 56.9074 22.3784C56.3473 21.828 55.914 21.1621 55.6377 20.4271C55.3646 19.7256 55.1807 18.9262 55.1256 17.7534C55.0739 16.5795 55.0596 16.2062 55.0596 13.2143C55.0596 10.2224 55.0706 9.84906 55.1256 8.67519C55.1807 7.50132 55.3646 6.70406 55.6377 6.0015C55.9133 5.2661 56.3466 4.60004 56.9074 4.05019C57.4576 3.48994 58.1236 3.05662 58.8587 2.78052C59.5612 2.50742 60.3585 2.32352 61.5324 2.26846C62.7062 2.21671 63.0795 2.20239 66.0715 2.20239Z" fill="white"/>
</g>
<g clip-path="url(#clip2_1_135)">
<path d="M118.929 2.20239C112.847 2.20239 107.917 7.13242 107.917 13.2143C107.917 18.7103 111.944 23.266 117.208 24.093V16.3967H114.411V13.2143H117.208V10.7884C117.208 8.02879 118.851 6.50474 121.368 6.50474C122.572 6.50474 123.832 6.71948 123.832 6.71948V9.4284H122.445C121.076 9.4284 120.65 10.2774 120.65 11.1485V13.2143H123.703L123.215 16.3967H120.65V24.093C125.913 23.2671 129.94 18.7092 129.94 13.2143C129.94 7.13242 125.01 2.20239 118.929 2.20239Z" fill="white"/>
</g>
<g clip-path="url(#clip3_1_135)">
<path d="M182.294 7.15556C182.798 9.11788 182.798 13.2143 182.798 13.2143C182.798 13.2143 182.798 17.3107 182.294 19.2731C182.015 20.3577 181.196 21.2112 180.16 21.4997C178.278 22.0238 171.786 22.0238 171.786 22.0238C171.786 22.0238 165.296 22.0238 163.411 21.4997C162.371 21.2067 161.553 20.3544 161.277 19.2731C160.774 17.3107 160.774 13.2143 160.774 13.2143C160.774 13.2143 160.774 9.11788 161.277 7.15556C161.557 6.07089 162.375 5.21746 163.411 4.92895C165.296 4.40478 171.786 4.40479 171.786 4.40479C171.786 4.40479 178.278 4.40478 180.16 4.92895C181.201 5.22187 182.018 6.07419 182.294 7.15556ZM169.583 17.0685L176.19 13.2143L169.583 9.36014V17.0685Z" fill="white"/>
</g>
<defs>
<clipPath id="clip0_1_135">
<rect width="26.4286" height="26.4286" fill="white"/>
</clipPath>
<clipPath id="clip1_1_135">
<rect width="26.4286" height="26.4286" fill="white" transform="translate(52.8572)"/>
</clipPath>
<clipPath id="clip2_1_135">
<rect width="26.4286" height="26.4286" fill="white" transform="translate(105.714)"/>
</clipPath>
<clipPath id="clip3_1_135">
<rect width="26.4286" height="26.4286" fill="white" transform="translate(158.571)"/>
</clipPath>
</defs>
</svg>
