<svg width="158" height="63" viewBox="0 0 158 63" fill="none" xmlns="http://www.w3.org/2000/svg">
<g clip-path="url(#clip0_1_86)">
<path d="M31.4985 28.8754V21.0004L20.9985 31.5004L31.4985 42.0004V34.1254H41.9985V28.8754H31.4985ZM31.4985 5.25037C17.0085 5.25037 5.24854 17.0104 5.24854 31.5004C5.24854 45.9904 17.0085 57.7504 31.4985 57.7504C45.9885 57.7504 57.7485 45.9904 57.7485 31.5004C57.7485 17.0104 45.9885 5.25037 31.4985 5.25037ZM31.4985 52.5004C19.896 52.5004 10.4985 43.1029 10.4985 31.5004C10.4985 19.8979 19.896 10.5004 31.4985 10.5004C43.101 10.5004 52.4985 19.8979 52.4985 31.5004C52.4985 43.1029 43.101 52.5004 31.4985 52.5004Z" fill="#59595B"/>
</g>
<g clip-path="url(#clip1_1_86)">
<path d="M126.001 28.8754V21.0004L136.501 31.5004L126.001 42.0004V34.1254H115.501V28.8754H126.001ZM126.001 5.25037C140.491 5.25037 152.251 17.0104 152.251 31.5004C152.251 45.9904 140.491 57.7504 126.001 57.7504C111.511 57.7504 99.7515 45.9904 99.7515 31.5004C99.7515 17.0104 111.511 5.25037 126.001 5.25037ZM126.001 52.5004C137.604 52.5004 147.001 43.1029 147.001 31.5004C147.001 19.8979 137.604 10.5004 126.001 10.5004C114.399 10.5004 105.001 19.8979 105.001 31.5004C105.001 43.1029 114.399 52.5004 126.001 52.5004Z" fill="#59595B"/>
</g>
<defs>
<clipPath id="clip0_1_86">
<rect width="63" height="63" fill="white" transform="matrix(-1 0 0 1 63 0)"/>
</clipPath>
<clipPath id="clip1_1_86">
<rect width="63" height="63" fill="white" transform="translate(94.5)"/>
</clipPath>
</defs>
</svg>
