<svg width="195" height="21" viewBox="0 0 195 21" fill="none" xmlns="http://www.w3.org/2000/svg">
<path d="M45.9189 13.6777C45.9189 13.4316 45.8809 13.2119 45.8047 13.0186C45.7344 12.8193 45.6025 12.6406 45.4092 12.4824C45.2217 12.3184 44.9551 12.1602 44.6094 12.0078C44.2695 11.8496 43.8301 11.6855 43.291 11.5156C42.6934 11.3281 42.1367 11.1172 41.6211 10.8828C41.1055 10.6484 40.6514 10.376 40.2588 10.0654C39.8721 9.75488 39.5703 9.39746 39.3535 8.99316C39.1367 8.58301 39.0283 8.1084 39.0283 7.56934C39.0283 7.04199 39.1396 6.56152 39.3623 6.12793C39.5908 5.69434 39.9131 5.32227 40.3291 5.01172C40.7451 4.69531 41.2344 4.45215 41.7969 4.28223C42.3652 4.1123 42.9922 4.02734 43.6777 4.02734C44.627 4.02734 45.4473 4.2002 46.1387 4.5459C46.8359 4.8916 47.375 5.36035 47.7559 5.95215C48.1367 6.54395 48.3271 7.20898 48.3271 7.94727H45.9189C45.9189 7.54883 45.834 7.19727 45.6641 6.89258C45.5 6.58789 45.248 6.34766 44.9082 6.17188C44.5742 5.99609 44.1523 5.9082 43.6426 5.9082C43.1504 5.9082 42.7402 5.98145 42.4121 6.12793C42.0898 6.27441 41.8467 6.47363 41.6826 6.72559C41.5244 6.97754 41.4453 7.25879 41.4453 7.56934C41.4453 7.80371 41.501 8.01465 41.6123 8.20215C41.7236 8.38379 41.8906 8.55664 42.1133 8.7207C42.3359 8.87891 42.6113 9.02832 42.9395 9.16895C43.2734 9.30371 43.6602 9.43848 44.0996 9.57324C44.8027 9.78418 45.418 10.0186 45.9453 10.2764C46.4785 10.5342 46.9209 10.8271 47.2725 11.1553C47.6299 11.4834 47.8965 11.8525 48.0723 12.2627C48.2539 12.6729 48.3447 13.1387 48.3447 13.6602C48.3447 14.2109 48.2363 14.7031 48.0195 15.1367C47.8027 15.5703 47.4922 15.9395 47.0879 16.2441C46.6836 16.5488 46.1973 16.7803 45.6289 16.9385C45.0664 17.0967 44.4365 17.1758 43.7393 17.1758C43.1182 17.1758 42.5029 17.0938 41.8936 16.9297C41.29 16.7598 40.7422 16.5078 40.25 16.1738C39.7578 15.834 39.3652 15.4062 39.0723 14.8906C38.7793 14.3691 38.6328 13.7598 38.6328 13.0625H41.0586C41.0586 13.4668 41.123 13.8125 41.252 14.0996C41.3867 14.3809 41.5742 14.6123 41.8145 14.7939C42.0605 14.9697 42.3477 15.0986 42.6758 15.1807C43.0039 15.2627 43.3584 15.3037 43.7393 15.3037C44.2314 15.3037 44.6357 15.2363 44.9521 15.1016C45.2744 14.9609 45.5146 14.7676 45.6729 14.5215C45.8369 14.2754 45.9189 13.9941 45.9189 13.6777ZM52.4932 7.49023V17H50.1641V7.49023H52.4932ZM50.0059 5.00293C50.0059 4.65723 50.123 4.37012 50.3574 4.1416C50.5977 3.91309 50.9199 3.79883 51.3242 3.79883C51.7285 3.79883 52.0479 3.91309 52.2822 4.1416C52.5225 4.37012 52.6426 4.65723 52.6426 5.00293C52.6426 5.34277 52.5225 5.62695 52.2822 5.85547C52.0479 6.08398 51.7285 6.19824 51.3242 6.19824C50.9199 6.19824 50.5977 6.08398 50.3574 5.85547C50.123 5.62695 50.0059 5.34277 50.0059 5.00293ZM60.7549 7.49023H62.8643V16.71C62.8643 17.5713 62.6768 18.3008 62.3018 18.8984C61.9326 19.502 61.4141 19.959 60.7461 20.2695C60.0781 20.5859 59.3018 20.7441 58.417 20.7441C58.0361 20.7441 57.623 20.6914 57.1777 20.5859C56.7383 20.4805 56.3135 20.3135 55.9033 20.085C55.499 19.8623 55.1621 19.5723 54.8926 19.2148L55.9385 17.8438C56.2549 18.2129 56.6123 18.4912 57.0107 18.6787C57.4092 18.8721 57.8398 18.9688 58.3027 18.9688C58.7715 18.9688 59.1699 18.8809 59.498 18.7051C59.832 18.5352 60.0869 18.2832 60.2627 17.9492C60.4443 17.6211 60.5352 17.2168 60.5352 16.7363V9.66113L60.7549 7.49023ZM54.3301 12.3594V12.1748C54.3301 11.4482 54.418 10.7891 54.5938 10.1973C54.7695 9.59961 55.0215 9.08691 55.3496 8.65918C55.6836 8.23145 56.085 7.90039 56.5537 7.66602C57.0283 7.43164 57.5615 7.31445 58.1533 7.31445C58.7803 7.31445 59.3076 7.42871 59.7354 7.65723C60.1689 7.88574 60.5264 8.21094 60.8076 8.63281C61.0947 9.05469 61.3174 9.55566 61.4756 10.1357C61.6396 10.71 61.7656 11.3428 61.8535 12.0342V12.5352C61.7715 13.209 61.6396 13.8271 61.458 14.3896C61.2822 14.9521 61.0479 15.4443 60.7549 15.8662C60.4619 16.2822 60.0986 16.6045 59.665 16.833C59.2314 17.0615 58.7217 17.1758 58.1357 17.1758C57.5498 17.1758 57.0225 17.0557 56.5537 16.8154C56.085 16.5752 55.6836 16.2383 55.3496 15.8047C55.0215 15.3711 54.7695 14.8613 54.5938 14.2754C54.418 13.6895 54.3301 13.0508 54.3301 12.3594ZM56.6504 12.1748V12.3594C56.6504 12.7695 56.6914 13.1533 56.7734 13.5107C56.8555 13.8682 56.9814 14.1846 57.1514 14.46C57.3213 14.7295 57.5352 14.9404 57.793 15.0928C58.0508 15.2451 58.3584 15.3213 58.7158 15.3213C59.1963 15.3213 59.5889 15.2217 59.8936 15.0225C60.2041 14.8174 60.4385 14.5391 60.5967 14.1875C60.7607 13.8301 60.8662 13.4287 60.9131 12.9834V11.6035C60.8838 11.252 60.8193 10.9268 60.7197 10.6279C60.626 10.3291 60.4941 10.0713 60.3242 9.85449C60.1543 9.6377 59.9375 9.46777 59.6738 9.34473C59.4102 9.22168 59.0967 9.16016 58.7334 9.16016C58.3818 9.16016 58.0742 9.23926 57.8105 9.39746C57.5469 9.5498 57.3301 9.76367 57.1602 10.0391C56.9902 10.3145 56.8613 10.6338 56.7734 10.9971C56.6914 11.3604 56.6504 11.7529 56.6504 12.1748ZM67.2324 9.52051V17H64.9121V7.49023H67.0918L67.2324 9.52051ZM66.8633 11.9023H66.1777C66.1836 11.2109 66.2773 10.584 66.459 10.0215C66.6406 9.45898 66.8955 8.97559 67.2236 8.57129C67.5576 8.16699 67.9531 7.85645 68.4102 7.63965C68.8672 7.42285 69.377 7.31445 69.9395 7.31445C70.3965 7.31445 70.8096 7.37891 71.1787 7.50781C71.5479 7.63672 71.8643 7.8418 72.1279 8.12305C72.3975 8.4043 72.6025 8.77344 72.7432 9.23047C72.8896 9.68164 72.9629 10.2383 72.9629 10.9004V17H70.625V10.8828C70.625 10.4492 70.5605 10.1064 70.4316 9.85449C70.3086 9.60254 70.127 9.42383 69.8867 9.31836C69.6523 9.21289 69.3623 9.16016 69.0166 9.16016C68.6592 9.16016 68.3457 9.2334 68.0762 9.37988C67.8125 9.52051 67.5898 9.7168 67.4082 9.96875C67.2324 10.2207 67.0977 10.5107 67.0039 10.8389C66.9102 11.167 66.8633 11.5215 66.8633 11.9023ZM81.9541 7.49023V17H79.625V7.49023H81.9541ZM79.4668 5.00293C79.4668 4.65723 79.584 4.37012 79.8184 4.1416C80.0586 3.91309 80.3809 3.79883 80.7852 3.79883C81.1895 3.79883 81.5088 3.91309 81.7432 4.1416C81.9834 4.37012 82.1035 4.65723 82.1035 5.00293C82.1035 5.34277 81.9834 5.62695 81.7432 5.85547C81.5088 6.08398 81.1895 6.19824 80.7852 6.19824C80.3809 6.19824 80.0586 6.08398 79.8184 5.85547C79.584 5.62695 79.4668 5.34277 79.4668 5.00293ZM86.4453 9.52051V17H84.125V7.49023H86.3047L86.4453 9.52051ZM86.0762 11.9023H85.3906C85.3965 11.2109 85.4902 10.584 85.6719 10.0215C85.8535 9.45898 86.1084 8.97559 86.4365 8.57129C86.7705 8.16699 87.166 7.85645 87.623 7.63965C88.0801 7.42285 88.5898 7.31445 89.1523 7.31445C89.6094 7.31445 90.0225 7.37891 90.3916 7.50781C90.7607 7.63672 91.0771 7.8418 91.3408 8.12305C91.6104 8.4043 91.8154 8.77344 91.9561 9.23047C92.1025 9.68164 92.1758 10.2383 92.1758 10.9004V17H89.8379V10.8828C89.8379 10.4492 89.7734 10.1064 89.6445 9.85449C89.5215 9.60254 89.3398 9.42383 89.0996 9.31836C88.8652 9.21289 88.5752 9.16016 88.2295 9.16016C87.8721 9.16016 87.5586 9.2334 87.2891 9.37988C87.0254 9.52051 86.8027 9.7168 86.6211 9.96875C86.4453 10.2207 86.3105 10.5107 86.2168 10.8389C86.123 11.167 86.0762 11.5215 86.0762 11.9023Z" fill="white"/>
<g clip-path="url(#clip0_1_310)">
<path d="M15.0258 14.3475L18.595 17.9158L17.4158 19.095L13.8475 15.5258C12.5197 16.5901 10.8683 17.169 9.16663 17.1666C5.02663 17.1666 1.66663 13.8066 1.66663 9.66663C1.66663 5.52663 5.02663 2.16663 9.16663 2.16663C13.3066 2.16663 16.6666 5.52663 16.6666 9.66663C16.669 11.3683 16.0901 13.0197 15.0258 14.3475ZM13.3541 13.7291C14.4117 12.6415 15.0023 11.1837 15 9.66663C15 6.44329 12.3891 3.83329 9.16663 3.83329C5.94329 3.83329 3.33329 6.44329 3.33329 9.66663C3.33329 12.8891 5.94329 15.5 9.16663 15.5C10.6837 15.5023 12.1415 14.9117 13.2291 13.8541L13.3541 13.7291Z" fill="white"/>
</g>
<path d="M121.919 13.6777C121.919 13.4316 121.881 13.2119 121.805 13.0186C121.734 12.8193 121.603 12.6406 121.409 12.4824C121.222 12.3184 120.955 12.1602 120.609 12.0078C120.27 11.8496 119.83 11.6855 119.291 11.5156C118.693 11.3281 118.137 11.1172 117.621 10.8828C117.105 10.6484 116.651 10.376 116.259 10.0654C115.872 9.75488 115.57 9.39746 115.354 8.99316C115.137 8.58301 115.028 8.1084 115.028 7.56934C115.028 7.04199 115.14 6.56152 115.362 6.12793C115.591 5.69434 115.913 5.32227 116.329 5.01172C116.745 4.69531 117.234 4.45215 117.797 4.28223C118.365 4.1123 118.992 4.02734 119.678 4.02734C120.627 4.02734 121.447 4.2002 122.139 4.5459C122.836 4.8916 123.375 5.36035 123.756 5.95215C124.137 6.54395 124.327 7.20898 124.327 7.94727H121.919C121.919 7.54883 121.834 7.19727 121.664 6.89258C121.5 6.58789 121.248 6.34766 120.908 6.17188C120.574 5.99609 120.152 5.9082 119.643 5.9082C119.15 5.9082 118.74 5.98145 118.412 6.12793C118.09 6.27441 117.847 6.47363 117.683 6.72559C117.524 6.97754 117.445 7.25879 117.445 7.56934C117.445 7.80371 117.501 8.01465 117.612 8.20215C117.724 8.38379 117.891 8.55664 118.113 8.7207C118.336 8.87891 118.611 9.02832 118.939 9.16895C119.273 9.30371 119.66 9.43848 120.1 9.57324C120.803 9.78418 121.418 10.0186 121.945 10.2764C122.479 10.5342 122.921 10.8271 123.272 11.1553C123.63 11.4834 123.896 11.8525 124.072 12.2627C124.254 12.6729 124.345 13.1387 124.345 13.6602C124.345 14.2109 124.236 14.7031 124.02 15.1367C123.803 15.5703 123.492 15.9395 123.088 16.2441C122.684 16.5488 122.197 16.7803 121.629 16.9385C121.066 17.0967 120.437 17.1758 119.739 17.1758C119.118 17.1758 118.503 17.0938 117.894 16.9297C117.29 16.7598 116.742 16.5078 116.25 16.1738C115.758 15.834 115.365 15.4062 115.072 14.8906C114.779 14.3691 114.633 13.7598 114.633 13.0625H117.059C117.059 13.4668 117.123 13.8125 117.252 14.0996C117.387 14.3809 117.574 14.6123 117.814 14.7939C118.061 14.9697 118.348 15.0986 118.676 15.1807C119.004 15.2627 119.358 15.3037 119.739 15.3037C120.231 15.3037 120.636 15.2363 120.952 15.1016C121.274 14.9609 121.515 14.7676 121.673 14.5215C121.837 14.2754 121.919 13.9941 121.919 13.6777ZM131.692 14.7412V7.49023H134.03V17H131.833L131.692 14.7412ZM131.991 12.7725L132.712 12.7549C132.712 13.3936 132.642 13.9824 132.501 14.5215C132.36 15.0605 132.141 15.5293 131.842 15.9277C131.549 16.3203 131.177 16.6279 130.726 16.8506C130.274 17.0674 129.741 17.1758 129.126 17.1758C128.657 17.1758 128.229 17.1113 127.843 16.9824C127.456 16.8477 127.122 16.6396 126.841 16.3584C126.565 16.0713 126.352 15.7051 126.199 15.2598C126.047 14.8086 125.971 14.2666 125.971 13.6338V7.49023H128.291V13.6514C128.291 13.9678 128.326 14.2314 128.396 14.4424C128.473 14.6533 128.575 14.8262 128.704 14.9609C128.839 15.0898 128.994 15.1836 129.17 15.2422C129.352 15.2949 129.545 15.3213 129.75 15.3213C130.312 15.3213 130.755 15.21 131.077 14.9873C131.405 14.7588 131.64 14.4541 131.78 14.0732C131.921 13.6865 131.991 13.2529 131.991 12.7725ZM136.078 3.5H138.407V14.8994L138.179 17H136.078V3.5ZM144.524 12.1484V12.333C144.524 13.042 144.445 13.6924 144.287 14.2842C144.135 14.876 143.903 15.3887 143.593 15.8223C143.282 16.25 142.896 16.584 142.433 16.8242C141.976 17.0586 141.439 17.1758 140.824 17.1758C140.238 17.1758 139.729 17.0615 139.295 16.833C138.867 16.6045 138.507 16.2822 138.214 15.8662C137.921 15.4443 137.687 14.9492 137.511 14.3809C137.335 13.8066 137.203 13.1797 137.115 12.5V11.999C137.203 11.3135 137.335 10.6865 137.511 10.1182C137.687 9.5498 137.921 9.05469 138.214 8.63281C138.507 8.21094 138.867 7.88574 139.295 7.65723C139.723 7.42871 140.227 7.31445 140.807 7.31445C141.428 7.31445 141.97 7.43457 142.433 7.6748C142.901 7.90918 143.288 8.24316 143.593 8.67676C143.903 9.10449 144.135 9.61426 144.287 10.2061C144.445 10.792 144.524 11.4395 144.524 12.1484ZM142.195 12.333V12.1484C142.195 11.7441 142.163 11.3633 142.099 11.0059C142.034 10.6426 141.929 10.3232 141.782 10.0479C141.636 9.77246 141.437 9.55566 141.185 9.39746C140.933 9.23926 140.616 9.16016 140.235 9.16016C139.872 9.16016 139.562 9.22168 139.304 9.34473C139.052 9.46777 138.841 9.6377 138.671 9.85449C138.507 10.0713 138.378 10.3262 138.284 10.6191C138.196 10.9121 138.138 11.2285 138.108 11.5684V12.9395C138.149 13.3906 138.246 13.7979 138.398 14.1611C138.551 14.5186 138.776 14.8027 139.075 15.0137C139.38 15.2246 139.772 15.3301 140.253 15.3301C140.628 15.3301 140.941 15.2568 141.193 15.1104C141.445 14.958 141.645 14.7471 141.791 14.4775C141.938 14.2021 142.04 13.8828 142.099 13.5195C142.163 13.1562 142.195 12.7607 142.195 12.333ZM151.441 14.3984C151.441 14.1992 151.389 14.0205 151.283 13.8623C151.178 13.7041 150.979 13.5605 150.686 13.4316C150.398 13.2969 149.977 13.1709 149.42 13.0537C148.928 12.9482 148.474 12.8164 148.058 12.6582C147.642 12.5 147.284 12.3096 146.985 12.0869C146.687 11.8584 146.452 11.5918 146.282 11.2871C146.118 10.9766 146.036 10.6191 146.036 10.2148C146.036 9.82227 146.121 9.45312 146.291 9.10742C146.461 8.75586 146.707 8.44824 147.029 8.18457C147.352 7.91504 147.744 7.7041 148.207 7.55176C148.67 7.39355 149.191 7.31445 149.771 7.31445C150.58 7.31445 151.274 7.44629 151.854 7.70996C152.44 7.97363 152.889 8.33691 153.199 8.7998C153.51 9.25684 153.665 9.77246 153.665 10.3467H151.345C151.345 10.0947 151.286 9.86621 151.169 9.66113C151.058 9.45605 150.885 9.29199 150.65 9.16895C150.416 9.04004 150.12 8.97559 149.763 8.97559C149.44 8.97559 149.168 9.02832 148.945 9.13379C148.729 9.23926 148.564 9.37695 148.453 9.54688C148.342 9.7168 148.286 9.9043 148.286 10.1094C148.286 10.2617 148.315 10.3994 148.374 10.5225C148.438 10.6396 148.541 10.748 148.682 10.8477C148.822 10.9473 149.013 11.0381 149.253 11.1201C149.499 11.2021 149.801 11.2812 150.158 11.3574C150.867 11.498 151.485 11.6855 152.013 11.9199C152.546 12.1484 152.962 12.4531 153.261 12.834C153.56 13.2148 153.709 13.7012 153.709 14.293C153.709 14.7148 153.618 15.1016 153.437 15.4531C153.255 15.7988 152.991 16.1006 152.646 16.3584C152.3 16.6162 151.887 16.8184 151.406 16.9648C150.926 17.1055 150.384 17.1758 149.78 17.1758C148.907 17.1758 148.169 17.0205 147.565 16.71C146.962 16.3936 146.505 15.9951 146.194 15.5146C145.884 15.0283 145.729 14.5244 145.729 14.0029H147.952C147.97 14.3721 148.069 14.668 148.251 14.8906C148.433 15.1133 148.661 15.2744 148.937 15.374C149.218 15.4678 149.514 15.5146 149.824 15.5146C150.176 15.5146 150.472 15.4678 150.712 15.374C150.952 15.2744 151.134 15.1426 151.257 14.9785C151.38 14.8086 151.441 14.6152 151.441 14.3984ZM159.378 15.3477C159.706 15.3477 159.999 15.2832 160.257 15.1543C160.515 15.0254 160.72 14.8438 160.872 14.6094C161.03 14.375 161.115 14.1025 161.127 13.792H163.315C163.304 14.4365 163.122 15.0137 162.771 15.5234C162.419 16.0332 161.95 16.4375 161.364 16.7363C160.784 17.0293 160.134 17.1758 159.413 17.1758C158.681 17.1758 158.042 17.0527 157.497 16.8066C156.952 16.5605 156.498 16.2178 156.135 15.7783C155.777 15.3389 155.508 14.8291 155.326 14.249C155.15 13.6689 155.062 13.0479 155.062 12.3857V12.1045C155.062 11.4424 155.15 10.8213 155.326 10.2412C155.508 9.66113 155.777 9.15137 156.135 8.71191C156.498 8.27246 156.952 7.92969 157.497 7.68359C158.042 7.4375 158.678 7.31445 159.404 7.31445C160.172 7.31445 160.846 7.46387 161.426 7.7627C162.012 8.06152 162.469 8.4834 162.797 9.02832C163.131 9.57324 163.304 10.2148 163.315 10.9531H161.127C161.115 10.6133 161.039 10.3086 160.898 10.0391C160.758 9.76953 160.559 9.55273 160.301 9.38867C160.043 9.22461 159.729 9.14258 159.36 9.14258C158.968 9.14258 158.64 9.22461 158.376 9.38867C158.118 9.55273 157.916 9.77832 157.77 10.0654C157.629 10.3467 157.529 10.6631 157.471 11.0146C157.418 11.3604 157.392 11.7236 157.392 12.1045V12.3857C157.392 12.7725 157.418 13.1416 157.471 13.4932C157.529 13.8447 157.629 14.1611 157.77 14.4424C157.916 14.7178 158.118 14.9375 158.376 15.1016C158.64 15.2656 158.974 15.3477 159.378 15.3477ZM167.183 9.43262V17H164.862V7.49023H167.06L167.183 9.43262ZM170.074 7.42871L170.039 9.59082C169.91 9.56738 169.764 9.5498 169.6 9.53809C169.441 9.52637 169.292 9.52051 169.151 9.52051C168.794 9.52051 168.48 9.57031 168.211 9.66992C167.941 9.76367 167.716 9.90137 167.534 10.083C167.358 10.2646 167.224 10.4873 167.13 10.751C167.036 11.0088 166.983 11.3018 166.972 11.6299L166.471 11.5684C166.471 10.9648 166.532 10.4053 166.655 9.88965C166.778 9.37402 166.957 8.92285 167.191 8.53613C167.426 8.14941 167.719 7.85059 168.07 7.63965C168.428 7.42285 168.838 7.31445 169.301 7.31445C169.43 7.31445 169.567 7.32617 169.714 7.34961C169.866 7.36719 169.986 7.39355 170.074 7.42871ZM173.81 7.49023V17H171.48V7.49023H173.81ZM171.322 5.00293C171.322 4.65723 171.439 4.37012 171.674 4.1416C171.914 3.91309 172.236 3.79883 172.641 3.79883C173.045 3.79883 173.364 3.91309 173.599 4.1416C173.839 4.37012 173.959 4.65723 173.959 5.00293C173.959 5.34277 173.839 5.62695 173.599 5.85547C173.364 6.08398 173.045 6.19824 172.641 6.19824C172.236 6.19824 171.914 6.08398 171.674 5.85547C171.439 5.62695 171.322 5.34277 171.322 5.00293ZM176.016 3.5H178.345V14.8994L178.116 17H176.016V3.5ZM184.462 12.1484V12.333C184.462 13.042 184.383 13.6924 184.225 14.2842C184.072 14.876 183.841 15.3887 183.53 15.8223C183.22 16.25 182.833 16.584 182.37 16.8242C181.913 17.0586 181.377 17.1758 180.762 17.1758C180.176 17.1758 179.666 17.0615 179.232 16.833C178.805 16.6045 178.444 16.2822 178.151 15.8662C177.858 15.4443 177.624 14.9492 177.448 14.3809C177.272 13.8066 177.141 13.1797 177.053 12.5V11.999C177.141 11.3135 177.272 10.6865 177.448 10.1182C177.624 9.5498 177.858 9.05469 178.151 8.63281C178.444 8.21094 178.805 7.88574 179.232 7.65723C179.66 7.42871 180.164 7.31445 180.744 7.31445C181.365 7.31445 181.907 7.43457 182.37 7.6748C182.839 7.90918 183.226 8.24316 183.53 8.67676C183.841 9.10449 184.072 9.61426 184.225 10.2061C184.383 10.792 184.462 11.4395 184.462 12.1484ZM182.133 12.333V12.1484C182.133 11.7441 182.101 11.3633 182.036 11.0059C181.972 10.6426 181.866 10.3232 181.72 10.0479C181.573 9.77246 181.374 9.55566 181.122 9.39746C180.87 9.23926 180.554 9.16016 180.173 9.16016C179.81 9.16016 179.499 9.22168 179.241 9.34473C178.989 9.46777 178.778 9.6377 178.608 9.85449C178.444 10.0713 178.315 10.3262 178.222 10.6191C178.134 10.9121 178.075 11.2285 178.046 11.5684V12.9395C178.087 13.3906 178.184 13.7979 178.336 14.1611C178.488 14.5186 178.714 14.8027 179.013 15.0137C179.317 15.2246 179.71 15.3301 180.19 15.3301C180.565 15.3301 180.879 15.2568 181.131 15.1104C181.383 14.958 181.582 14.7471 181.729 14.4775C181.875 14.2021 181.978 13.8828 182.036 13.5195C182.101 13.1562 182.133 12.7607 182.133 12.333ZM190.421 17.1758C189.7 17.1758 189.053 17.0586 188.479 16.8242C187.904 16.5898 187.415 16.2646 187.011 15.8486C186.612 15.4268 186.305 14.9375 186.088 14.3809C185.877 13.8184 185.771 13.2148 185.771 12.5703V12.2188C185.771 11.4863 185.877 10.8213 186.088 10.2236C186.299 9.62012 186.598 9.10156 186.984 8.66797C187.371 8.23438 187.834 7.90039 188.373 7.66602C188.912 7.43164 189.507 7.31445 190.157 7.31445C190.831 7.31445 191.426 7.42871 191.941 7.65723C192.457 7.87988 192.888 8.19629 193.233 8.60645C193.579 9.0166 193.84 9.50879 194.016 10.083C194.191 10.6514 194.279 11.2812 194.279 11.9727V12.9482H186.826V11.3486H191.994V11.1729C191.982 10.8037 191.912 10.4668 191.783 10.1621C191.654 9.85156 191.455 9.60547 191.186 9.42383C190.916 9.23633 190.567 9.14258 190.14 9.14258C189.794 9.14258 189.492 9.21875 189.234 9.37109C188.982 9.51758 188.771 9.72852 188.602 10.0039C188.438 10.2734 188.314 10.5957 188.232 10.9707C188.15 11.3457 188.109 11.7617 188.109 12.2188V12.5703C188.109 12.9688 188.162 13.3379 188.268 13.6777C188.379 14.0176 188.54 14.3135 188.751 14.5654C188.968 14.8115 189.226 15.0049 189.524 15.1455C189.829 15.2803 190.175 15.3477 190.562 15.3477C191.048 15.3477 191.487 15.2539 191.88 15.0664C192.278 14.873 192.624 14.5889 192.917 14.2139L194.086 15.4268C193.887 15.7197 193.617 16.001 193.277 16.2705C192.943 16.54 192.539 16.7598 192.064 16.9297C191.59 17.0938 191.042 17.1758 190.421 17.1758Z" fill="white"/>
<defs>
<clipPath id="clip0_1_310">
<rect width="20" height="20" fill="white" transform="translate(0 0.5)"/>
</clipPath>
</defs>
</svg>
