<svg width="169" height="41" viewBox="0 0 169 41" fill="none" xmlns="http://www.w3.org/2000/svg">
<rect x="1" y="1" width="167" height="39" rx="4" stroke="#020202" stroke-width="2"/>
<path d="M28.7217 24.4951L31.9121 14.2031H34.5928L30.0752 27H28.291L28.7217 24.4951ZM25.7773 14.2031L28.9502 24.4951L29.4072 27H27.6055L23.1055 14.2031H25.7773ZM38.1963 17.4902V27H35.8672V17.4902H38.1963ZM35.709 15.0029C35.709 14.6572 35.8262 14.3701 36.0605 14.1416C36.3008 13.9131 36.623 13.7988 37.0273 13.7988C37.4316 13.7988 37.751 13.9131 37.9854 14.1416C38.2256 14.3701 38.3457 14.6572 38.3457 15.0029C38.3457 15.3428 38.2256 15.627 37.9854 15.8555C37.751 16.084 37.4316 16.1982 37.0273 16.1982C36.623 16.1982 36.3008 16.084 36.0605 15.8555C35.8262 15.627 35.709 15.3428 35.709 15.0029ZM44.6826 27.1758C43.9619 27.1758 43.3145 27.0586 42.7402 26.8242C42.166 26.5898 41.6768 26.2646 41.2725 25.8486C40.874 25.4268 40.5664 24.9375 40.3496 24.3809C40.1387 23.8184 40.0332 23.2148 40.0332 22.5703V22.2188C40.0332 21.4863 40.1387 20.8213 40.3496 20.2236C40.5605 19.6201 40.8594 19.1016 41.2461 18.668C41.6328 18.2344 42.0957 17.9004 42.6348 17.666C43.1738 17.4316 43.7686 17.3145 44.4189 17.3145C45.0928 17.3145 45.6875 17.4287 46.2031 17.6572C46.7188 17.8799 47.1494 18.1963 47.4951 18.6064C47.8408 19.0166 48.1016 19.5088 48.2773 20.083C48.4531 20.6514 48.541 21.2812 48.541 21.9727V22.9482H41.0879V21.3486H46.2559V21.1729C46.2441 20.8037 46.1738 20.4668 46.0449 20.1621C45.916 19.8516 45.7168 19.6055 45.4473 19.4238C45.1777 19.2363 44.8291 19.1426 44.4014 19.1426C44.0557 19.1426 43.7539 19.2188 43.4961 19.3711C43.2441 19.5176 43.0332 19.7285 42.8633 20.0039C42.6992 20.2734 42.5762 20.5957 42.4941 20.9707C42.4121 21.3457 42.3711 21.7617 42.3711 22.2188V22.5703C42.3711 22.9688 42.4238 23.3379 42.5293 23.6777C42.6406 24.0176 42.8018 24.3135 43.0127 24.5654C43.2295 24.8115 43.4873 25.0049 43.7861 25.1455C44.0908 25.2803 44.4365 25.3477 44.8232 25.3477C45.3096 25.3477 45.749 25.2539 46.1416 25.0664C46.54 24.873 46.8857 24.5889 47.1787 24.2139L48.3477 25.4268C48.1484 25.7197 47.8789 26.001 47.5391 26.2705C47.2051 26.54 46.8008 26.7598 46.3262 26.9297C45.8516 27.0938 45.3037 27.1758 44.6826 27.1758ZM52.7422 24.7148L54.8252 17.4902H56.3018L55.8623 19.9863L53.7617 27H52.4873L52.7422 24.7148ZM51.5908 17.4902L53.1553 24.7324L53.2959 27H51.8281L49.332 17.4902H51.5908ZM58.2354 24.627L59.7646 17.4902H62.0146L59.5361 27H58.0684L58.2354 24.627ZM56.5303 17.4902L58.5957 24.6445L58.8682 27H57.5938L55.4756 19.9863L55.0449 17.4902H56.5303ZM70.1797 19.4414V27H67.8594V17.4902H70.0479L70.1797 19.4414ZM69.8369 21.9023H69.125C69.125 21.2402 69.2041 20.6309 69.3623 20.0742C69.5264 19.5176 69.7666 19.0342 70.083 18.624C70.3994 18.208 70.7891 17.8857 71.252 17.6572C71.7207 17.4287 72.2627 17.3145 72.8779 17.3145C73.3057 17.3145 73.6982 17.3789 74.0557 17.5078C74.4131 17.6309 74.7207 17.8271 74.9785 18.0967C75.2422 18.3604 75.4443 18.7061 75.585 19.1338C75.7256 19.5557 75.7959 20.0625 75.7959 20.6543V27H73.4756V20.8916C73.4756 20.4463 73.4111 20.0977 73.2822 19.8457C73.1592 19.5938 72.9805 19.418 72.7461 19.3184C72.5117 19.2129 72.2305 19.1602 71.9023 19.1602C71.5391 19.1602 71.2256 19.2334 70.9619 19.3799C70.7041 19.5205 70.4902 19.7168 70.3203 19.9688C70.1562 20.2207 70.0332 20.5107 69.9512 20.8389C69.875 21.167 69.8369 21.5215 69.8369 21.9023ZM75.6201 21.4717L74.6621 21.6475C74.668 21.0498 74.75 20.4902 74.9082 19.9688C75.0664 19.4414 75.2979 18.9814 75.6025 18.5889C75.9131 18.1904 76.2969 17.8799 76.7539 17.6572C77.2168 17.4287 77.75 17.3145 78.3535 17.3145C78.8223 17.3145 79.2441 17.3818 79.6191 17.5166C80 17.6455 80.3252 17.8535 80.5947 18.1406C80.8643 18.4219 81.0693 18.7881 81.21 19.2393C81.3564 19.6904 81.4297 20.2412 81.4297 20.8916V27H79.0918V20.8828C79.0918 20.4199 79.0273 20.0654 78.8984 19.8193C78.7754 19.5732 78.5967 19.4033 78.3623 19.3096C78.1279 19.21 77.8525 19.1602 77.5361 19.1602C77.2139 19.1602 76.9326 19.2217 76.6924 19.3447C76.458 19.4619 76.2588 19.626 76.0947 19.8369C75.9365 20.0479 75.8164 20.2939 75.7344 20.5752C75.6582 20.8506 75.6201 21.1494 75.6201 21.4717ZM83.0996 22.3418V22.1572C83.0996 21.46 83.1992 20.8184 83.3984 20.2324C83.5977 19.6406 83.8877 19.1279 84.2686 18.6943C84.6494 18.2607 85.1152 17.9238 85.666 17.6836C86.2168 17.4375 86.8438 17.3145 87.5469 17.3145C88.2617 17.3145 88.8945 17.4375 89.4453 17.6836C90.002 17.9238 90.4707 18.2607 90.8516 18.6943C91.2324 19.1279 91.5225 19.6406 91.7217 20.2324C91.9209 20.8184 92.0205 21.46 92.0205 22.1572V22.3418C92.0205 23.0332 91.9209 23.6748 91.7217 24.2666C91.5225 24.8525 91.2324 25.3652 90.8516 25.8047C90.4707 26.2383 90.0049 26.5752 89.4541 26.8154C88.9033 27.0557 88.2734 27.1758 87.5645 27.1758C86.8613 27.1758 86.2314 27.0557 85.6748 26.8154C85.1182 26.5752 84.6494 26.2383 84.2686 25.8047C83.8877 25.3652 83.5977 24.8525 83.3984 24.2666C83.1992 23.6748 83.0996 23.0332 83.0996 22.3418ZM85.4199 22.1572V22.3418C85.4199 22.7578 85.4609 23.1475 85.543 23.5107C85.625 23.874 85.751 24.1934 85.9209 24.4688C86.0908 24.7441 86.3105 24.9609 86.5801 25.1191C86.8555 25.2715 87.1836 25.3477 87.5645 25.3477C87.9395 25.3477 88.2617 25.2715 88.5312 25.1191C88.8008 24.9609 89.0205 24.7441 89.1904 24.4688C89.3662 24.1934 89.4951 23.874 89.5771 23.5107C89.6592 23.1475 89.7002 22.7578 89.7002 22.3418V22.1572C89.7002 21.7471 89.6592 21.3633 89.5771 21.0059C89.4951 20.6426 89.3662 20.3232 89.1904 20.0479C89.0205 19.7666 88.7979 19.5469 88.5225 19.3887C88.2529 19.2246 87.9277 19.1426 87.5469 19.1426C87.1719 19.1426 86.8496 19.2246 86.5801 19.3887C86.3105 19.5469 86.0908 19.7666 85.9209 20.0479C85.751 20.3232 85.625 20.6426 85.543 21.0059C85.4609 21.3633 85.4199 21.7471 85.4199 22.1572ZM96.0283 19.4326V27H93.708V17.4902H95.9053L96.0283 19.4326ZM98.9199 17.4287L98.8848 19.5908C98.7559 19.5674 98.6094 19.5498 98.4453 19.5381C98.2871 19.5264 98.1377 19.5205 97.9971 19.5205C97.6396 19.5205 97.3262 19.5703 97.0566 19.6699C96.7871 19.7637 96.5615 19.9014 96.3799 20.083C96.2041 20.2646 96.0693 20.4873 95.9756 20.751C95.8818 21.0088 95.8291 21.3018 95.8174 21.6299L95.3164 21.5684C95.3164 20.9648 95.3779 20.4053 95.501 19.8896C95.624 19.374 95.8027 18.9229 96.0371 18.5361C96.2715 18.1494 96.5645 17.8506 96.916 17.6396C97.2734 17.4229 97.6836 17.3145 98.1465 17.3145C98.2754 17.3145 98.4131 17.3262 98.5596 17.3496C98.7119 17.3672 98.832 17.3936 98.9199 17.4287ZM104.29 27.1758C103.569 27.1758 102.922 27.0586 102.348 26.8242C101.773 26.5898 101.284 26.2646 100.88 25.8486C100.481 25.4268 100.174 24.9375 99.957 24.3809C99.7461 23.8184 99.6406 23.2148 99.6406 22.5703V22.2188C99.6406 21.4863 99.7461 20.8213 99.957 20.2236C100.168 19.6201 100.467 19.1016 100.854 18.668C101.24 18.2344 101.703 17.9004 102.242 17.666C102.781 17.4316 103.376 17.3145 104.026 17.3145C104.7 17.3145 105.295 17.4287 105.811 17.6572C106.326 17.8799 106.757 18.1963 107.103 18.6064C107.448 19.0166 107.709 19.5088 107.885 20.083C108.061 20.6514 108.148 21.2812 108.148 21.9727V22.9482H100.695V21.3486H105.863V21.1729C105.852 20.8037 105.781 20.4668 105.652 20.1621C105.523 19.8516 105.324 19.6055 105.055 19.4238C104.785 19.2363 104.437 19.1426 104.009 19.1426C103.663 19.1426 103.361 19.2188 103.104 19.3711C102.852 19.5176 102.641 19.7285 102.471 20.0039C102.307 20.2734 102.184 20.5957 102.102 20.9707C102.02 21.3457 101.979 21.7617 101.979 22.2188V22.5703C101.979 22.9688 102.031 23.3379 102.137 23.6777C102.248 24.0176 102.409 24.3135 102.62 24.5654C102.837 24.8115 103.095 25.0049 103.394 25.1455C103.698 25.2803 104.044 25.3477 104.431 25.3477C104.917 25.3477 105.356 25.2539 105.749 25.0664C106.147 24.873 106.493 24.5889 106.786 24.2139L107.955 25.4268C107.756 25.7197 107.486 26.001 107.146 26.2705C106.812 26.54 106.408 26.7598 105.934 26.9297C105.459 27.0938 104.911 27.1758 104.29 27.1758Z" fill="#020202"/>
<g clip-path="url(#clip0_1_129)">
<path d="M136 21.4767L140.125 17.3517L141.303 18.53L136 23.8334L130.697 18.53L131.875 17.3517L136 21.4767Z" fill="#020202"/>
</g>
<defs>
<clipPath id="clip0_1_129">
<rect width="20" height="20" fill="white" transform="translate(126 10.5)"/>
</clipPath>
</defs>
</svg>
