<svg width="173" height="41" viewBox="0 0 173 41" fill="none" xmlns="http://www.w3.org/2000/svg">
<rect x="1" y="1" width="171" height="39" rx="4" stroke="white" stroke-width="2"/>
<path d="M29.6865 24.6621L33.0527 14.2031H35.4873L30.8994 27H29.2559L29.6865 24.6621ZM26.5752 14.2031L29.915 24.6621L30.3721 27H28.7197L24.1494 14.2031H26.5752ZM39.2754 14.2031V27H37.0693V14.2031H39.2754ZM50.3936 25.251V27H43.5996V25.251H50.3936ZM44.2236 14.2031V27H42.0176V14.2031H44.2236ZM49.5059 19.5469V21.2695H43.5996V19.5469H49.5059ZM50.3496 14.2031V15.9609H43.5996V14.2031H50.3496ZM55.4033 24.126L57.9521 14.2031H59.2881L59.1387 16.7607L56.4141 27H55.0254L55.4033 24.126ZM53.4961 14.2031L55.5615 24.0469L55.7461 27H54.2695L51.3076 14.2031H53.4961ZM62.1797 24.0205L64.2188 14.2031H66.416L63.4541 27H61.9775L62.1797 24.0205ZM59.8066 14.2031L62.3291 24.1523L62.6982 27H61.3096L58.6289 16.7607L58.4883 14.2031H59.8066ZM73.4297 14.2031H75.3984L79.0986 24.0732L82.79 14.2031H84.7588L79.8721 27H78.3076L73.4297 14.2031ZM72.5332 14.2031H74.4053L74.7305 22.7461V27H72.5332V14.2031ZM83.7832 14.2031H85.6641V27H83.458V22.7461L83.7832 14.2031ZM98.4873 20.25V20.9531C98.4873 21.9199 98.3613 22.7871 98.1094 23.5547C97.8574 24.3223 97.4971 24.9756 97.0283 25.5146C96.5654 26.0537 96.0088 26.4668 95.3584 26.7539C94.708 27.0352 93.9873 27.1758 93.1963 27.1758C92.4111 27.1758 91.6934 27.0352 91.043 26.7539C90.3984 26.4668 89.8389 26.0537 89.3643 25.5146C88.8896 24.9756 88.5205 24.3223 88.2568 23.5547C87.999 22.7871 87.8701 21.9199 87.8701 20.9531V20.25C87.8701 19.2832 87.999 18.4189 88.2568 17.6572C88.5146 16.8896 88.8779 16.2363 89.3467 15.6973C89.8213 15.1523 90.3809 14.7393 91.0254 14.458C91.6758 14.1709 92.3936 14.0273 93.1787 14.0273C93.9697 14.0273 94.6904 14.1709 95.3408 14.458C95.9912 14.7393 96.5508 15.1523 97.0195 15.6973C97.4883 16.2363 97.8486 16.8896 98.1006 17.6572C98.3584 18.4189 98.4873 19.2832 98.4873 20.25ZM96.2812 20.9531V20.2324C96.2812 19.5176 96.2109 18.8877 96.0703 18.3428C95.9355 17.792 95.7334 17.332 95.4639 16.9629C95.2002 16.5879 94.875 16.3066 94.4883 16.1191C94.1016 15.9258 93.665 15.8291 93.1787 15.8291C92.6924 15.8291 92.2588 15.9258 91.8779 16.1191C91.4971 16.3066 91.1719 16.5879 90.9023 16.9629C90.6387 17.332 90.4365 17.792 90.2959 18.3428C90.1553 18.8877 90.085 19.5176 90.085 20.2324V20.9531C90.085 21.668 90.1553 22.3008 90.2959 22.8516C90.4365 23.4023 90.6416 23.8682 90.9111 24.249C91.1865 24.624 91.5146 24.9082 91.8955 25.1016C92.2764 25.2891 92.71 25.3828 93.1963 25.3828C93.6885 25.3828 94.125 25.2891 94.5059 25.1016C94.8867 24.9082 95.209 24.624 95.4727 24.249C95.7363 23.8682 95.9355 23.4023 96.0703 22.8516C96.2109 22.3008 96.2812 21.668 96.2812 20.9531ZM100.693 14.2031H105.22C106.192 14.2031 107.021 14.3496 107.707 14.6426C108.393 14.9355 108.917 15.3691 109.28 15.9434C109.649 16.5117 109.834 17.2148 109.834 18.0527C109.834 18.6914 109.717 19.2539 109.482 19.7402C109.248 20.2266 108.917 20.6367 108.489 20.9707C108.062 21.2988 107.552 21.5537 106.96 21.7354L106.292 22.0605H102.223L102.205 20.3115H105.255C105.782 20.3115 106.222 20.2178 106.573 20.0303C106.925 19.8428 107.188 19.5879 107.364 19.2656C107.546 18.9375 107.637 18.5684 107.637 18.1582C107.637 17.7129 107.549 17.3262 107.373 16.998C107.203 16.6641 106.939 16.4092 106.582 16.2334C106.225 16.0518 105.771 15.9609 105.22 15.9609H102.899V27H100.693V14.2031ZM107.997 27L104.991 21.252L107.303 21.2432L110.353 26.8857V27H107.997ZM120.407 25.251V27H113.613V25.251H120.407ZM114.237 14.2031V27H112.031V14.2031H114.237ZM119.52 19.5469V21.2695H113.613V19.5469H119.52ZM120.363 14.2031V15.9609H113.613V14.2031H120.363Z" fill="white"/>
<g clip-path="url(#clip0_1_76)">
<path d="M137 21.672L141.95 16.722L143.364 18.136L137 24.5L130.636 18.136L132.05 16.722L137 21.672Z" fill="white"/>
</g>
<defs>
<clipPath id="clip0_1_76">
<rect width="24" height="24" fill="white" transform="translate(125 8.5)"/>
</clipPath>
</defs>
</svg>
